<?xml version="1.0" standalone="no"?>
<!DOCTYPE svg PUBLIC "-//W3C//DTD SVG 20010904//EN"
 "http://www.w3.org/TR/2001/REC-SVG-20010904/DTD/svg10.dtd">
<svg version="1.0" xmlns="http://www.w3.org/2000/svg"
 width="450.000000pt" height="550.000000pt" viewBox="0 0 450.000000 550.000000"
 preserveAspectRatio="xMidYMid meet">

<g transform="translate(0.000000,550.000000) scale(0.100000,-0.100000)"
fill="#000000" stroke="none">
<path d="M1740 5120 c-120 -74 -147 -95 -157 -122 -33 -87 -1374 -4804 -1371
-4822 3 -21 7 -21 363 -24 l360 -2 154 94 c85 52 158 101 162 108 4 7 64 227
134 488 69 261 130 478 134 483 4 4 321 6 705 5 l699 -3 152 -572 c84 -315
158 -579 165 -588 11 -13 61 -15 371 -15 l359 0 151 97 c83 53 153 102 156
109 4 11 -1355 4782 -1377 4832 l-10 22 -502 -1 -503 0 -145 -89z m1100 63
c-1 -5 -54 -42 -120 -83 l-118 -75 -371 3 c-265 2 -371 6 -371 14 0 6 9 42 20
79 l21 69 469 0 c259 0 470 -3 470 -7z m-997 -87 l-17 -66 -96 0 -95 1 40 24
c22 13 72 44 110 68 39 24 71 43 73 41 2 -1 -5 -31 -15 -68z m1041 57 c23 -77
1366 -4784 1366 -4788 0 -3 -69 -5 -154 -5 -139 0 -155 2 -160 18 -23 75
-1315 4601 -1318 4614 -2 13 30 39 122 98 69 44 128 80 132 80 4 0 9 -8 12
-17z m-294 -159 c0 -3 308 -1083 685 -2400 377 -1317 685 -2399 685 -2404 0
-6 -133 -10 -354 -10 -329 0 -355 1 -360 18 -4 13 -150 560 -297 1115 l-10 37
-843 0 -843 0 -137 -517 c-76 -285 -146 -547 -155 -583 l-18 -65 -358 -3
c-337 -2 -357 -1 -353 15 3 10 313 1095 689 2411 l683 2392 493 0 c271 0 493
-3 493 -6z m-1110 -3676 c0 -7 -56 -224 -125 -482 -69 -257 -125 -470 -125
-472 0 -2 -48 -4 -106 -4 -105 0 -106 0 -101 22 3 13 61 231 129 486 l122 462
103 0 c76 0 103 -3 103 -12z m-296 -988 c-10 -10 -203 -130 -209 -130 -3 0 21
101 30 128 3 8 32 12 97 12 62 0 89 -3 82 -10z m3026 3 c-1 -9 -203 -138 -216
-138 -8 0 -44 108 -44 133 0 9 33 12 130 12 72 0 130 -3 130 -7z"/>
<path d="M2065 4398 c-8 -23 -635 -2385 -635 -2392 0 -3 299 -6 665 -6 525 0
665 3 665 13 0 15 0 15 -289 1097 -133 498 -265 994 -294 1102 -52 197 -52
198 -80 198 -15 0 -30 -6 -32 -12z m90 -203 l47 -180 -241 -904 c-133 -497
-245 -909 -250 -915 -14 -17 -241 -169 -245 -165 -2 2 137 533 310 1179 173
646 314 1177 314 1180 0 2 4 0 9 -5 5 -6 30 -91 56 -190z m299 -1110 c124
-468 226 -856 226 -863 0 -9 -102 -12 -466 -12 -369 0 -465 3 -461 13 2 6 107
398 232 870 126 471 232 854 236 850 3 -5 108 -391 233 -858z m246 -937 c6
-24 16 -58 22 -76 5 -18 8 -35 6 -38 -3 -2 -276 -3 -608 -2 l-603 3 88 60
c156 105 88 95 617 95 l467 0 11 -42z"/>
</g>
</svg>
