<?xml version="1.0" standalone="no"?>
<!DOCTYPE svg PUBLIC "-//W3C//DTD SVG 20010904//EN"
 "http://www.w3.org/TR/2001/REC-SVG-20010904/DTD/svg10.dtd">
<svg version="1.0" xmlns="http://www.w3.org/2000/svg"
 width="420.000000pt" height="520.000000pt" viewBox="0 0 420.000000 520.000000"
 preserveAspectRatio="xMidYMid meet">

<g transform="translate(0.000000,520.000000) scale(0.100000,-0.100000)"
fill="#000000" stroke="none">
<path d="M1591 5041 c-79 -49 -148 -96 -153 -106 -6 -9 -319 -1100 -698 -2423
-498 -1745 -685 -2412 -678 -2425 8 -16 36 -17 367 -17 l358 0 156 96 c131 80
158 101 166 127 6 18 65 237 131 486 67 250 123 459 126 463 4 7 1404 12 1404
6 0 -28 313 -1164 322 -1169 7 -5 174 -9 371 -9 l358 0 150 97 c83 53 153 102
156 108 4 11 -1355 4782 -1377 4833 l-10 22 -502 -1 -503 0 -144 -88z m1099
64 c0 -3 -54 -40 -119 -83 l-119 -77 -375 3 -375 2 20 68 c10 37 21 73 23 80
3 9 107 12 475 12 258 0 470 -2 470 -5z m59 -82 c34 -116 1339 -4686 1346
-4715 l7 -28 -155 0 c-140 0 -156 2 -161 18 -21 69 -1315 4601 -1318 4614 -2
12 32 39 122 97 69 45 128 81 132 81 4 0 16 -30 27 -67z m-1042 45 c-2 -7 -10
-37 -17 -65 l-14 -53 -95 0 c-52 0 -92 2 -90 4 12 11 205 125 213 126 4 0 6
-6 3 -12z m-47 -158 c0 -6 -295 -1044 -656 -2308 -362 -1263 -657 -2305 -658
-2315 -1 -12 -45 -46 -129 -99 -70 -45 -129 -79 -131 -77 -3 3 1352 4752 1369
4797 6 15 205 18 205 2z m1435 -2292 c362 -1267 660 -2311 663 -2320 4 -17 -9
-18 -182 -18 -102 0 -186 3 -186 6 0 3 -65 252 -145 552 -80 301 -150 564
-156 585 l-10 37 -840 0 c-722 0 -842 -2 -855 -15 -8 -8 -75 -51 -149 -95 -74
-45 -135 -83 -135 -86 0 -3 -54 -208 -121 -457 -66 -249 -124 -469 -130 -489
l-10 -38 -222 0 c-122 0 -227 4 -234 8 -8 5 173 653 649 2320 l661 2312 372 0
372 0 658 -2302z m-96 -1216 c-24 -15 -83 -51 -130 -80 l-87 -52 -699 0 c-385
0 -702 2 -705 5 -3 3 4 39 15 80 l20 75 816 0 815 0 -45 -28z m-1638 -63 l-18
-64 -94 -3 c-61 -2 -90 1 -84 7 15 14 208 131 212 128 1 -2 -6 -32 -16 -68z
m1853 -492 c82 -309 151 -567 153 -573 4 -10 -255 -179 -262 -172 -5 5 -305
1131 -305 1143 0 9 246 165 260 165 3 0 72 -253 154 -563z m-1884 388 c0 -11
-223 -861 -246 -937 -5 -16 -19 -18 -111 -18 -104 0 -105 0 -100 22 3 13 61
231 129 486 l122 462 103 0 c84 0 103 -3 103 -15z m-504 -1002 c-4 -16 -14
-52 -22 -80 l-15 -53 -331 0 c-195 0 -328 4 -323 9 6 5 61 41 124 80 l114 71
230 0 229 0 -6 -27z m214 23 c0 -6 -175 -115 -198 -123 -16 -7 -16 -4 9 90
l10 37 89 0 c50 0 90 -2 90 -4z m2744 -48 c8 -29 18 -65 21 -81 l7 -27 -328 0
c-180 0 -325 3 -321 6 3 3 59 39 124 80 l118 74 182 0 182 0 15 -52z m276 47
c0 -5 -153 -107 -207 -138 -8 -5 -18 14 -32 61 -12 38 -21 72 -21 76 0 3 59 6
130 6 72 0 130 -2 130 -5z"/>
<path d="M2071 4435 c-74 -46 -141 -95 -148 -107 -15 -27 -647 -2398 -640
-2404 2 -3 300 -4 663 -4 626 0 659 1 679 19 11 10 77 53 148 96 70 42 127 82
127 88 0 7 -144 547 -318 1202 l-318 1190 -29 2 c-22 2 -65 -19 -164 -82z
m485 -1115 c169 -635 309 -1163 312 -1172 4 -17 -8 -18 -151 -18 l-156 0 -10
38 c-5 20 -113 426 -240 902 l-230 865 70 265 c83 313 77 296 88 284 5 -5 147
-529 317 -1164z m-421 919 c-32 -118 -60 -220 -64 -227 -4 -8 -26 57 -51 149
-35 133 -40 163 -29 170 8 4 55 34 104 67 50 32 91 58 93 57 2 -2 -22 -99 -53
-216z m-110 135 c-24 -18 -83 -50 -73 -39 10 10 81 54 88 54 3 0 -4 -7 -15
-15z m-20 -260 l48 -181 -237 -889 c-130 -489 -241 -899 -246 -911 -8 -20
-247 -190 -255 -181 -1 2 138 532 311 1178 173 646 314 1177 314 1180 0 2 4 0
9 -5 5 -6 30 -92 56 -191z m300 -1124 c124 -465 225 -848 225 -852 0 -5 -210
-8 -466 -8 -369 0 -465 3 -461 13 2 6 107 398 233 871 157 589 231 853 236
840 4 -11 109 -399 233 -864z m245 -922 c6 -24 16 -58 22 -76 5 -18 8 -35 6
-38 -3 -2 -276 -3 -608 -2 l-604 3 118 78 118 77 469 0 468 0 11 -42z m285 33
c-23 -23 -225 -140 -229 -133 -4 8 -36 126 -36 136 0 3 62 6 137 6 85 0 133
-4 128 -9z"/>
</g>
</svg>
